<svg xmlns="http://www.w3.org/2000/svg" xmlns:xlink="http://www.w3.org/1999/xlink" width="182" zoomAndPan="magnify" viewBox="0 0 136.5 38.249999" height="51" preserveAspectRatio="xMidYMid meet" version="1.0"><defs><g/><clipPath id="8effeef9f0"><rect x="0" width="95" y="0" height="29"/></clipPath></defs><g transform="matrix(1, 0, 0, 1, 21, 4)"><g clip-path="url(#8effeef9f0)"><g fill="#c877a3" fill-opacity="1"><g transform="translate(0.558679, 19.277486)"><g><path d="M 11.359375 -10.515625 C 11.359375 -9.617188 11.140625 -8.5625 10.703125 -7.34375 C 10.265625 -6.125 9.703125 -4.945312 9.015625 -3.8125 C 8.335938 -2.675781 7.507812 -1.710938 6.53125 -0.921875 C 5.550781 -0.140625 4.617188 0.25 3.734375 0.25 C 2.859375 0.25 2.210938 -0.03125 1.796875 -0.59375 C 1.378906 -1.15625 1.171875 -1.847656 1.171875 -2.671875 C 1.171875 -3.828125 1.570312 -5.210938 2.375 -6.828125 C 3.1875 -8.453125 4.238281 -9.890625 5.53125 -11.140625 C 6.832031 -12.390625 8.078125 -13.015625 9.265625 -13.015625 C 10.660156 -13.015625 11.359375 -12.179688 11.359375 -10.515625 Z M 6.90625 -2.328125 C 7.976562 -3.753906 8.84375 -5.3125 9.5 -7 C 10.164062 -8.6875 10.5 -10.039062 10.5 -11.0625 C 10.5 -12.082031 10.09375 -12.59375 9.28125 -12.59375 C 8.59375 -12.59375 7.832031 -12.148438 7 -11.265625 C 6.164062 -10.390625 5.425781 -9.363281 4.78125 -8.1875 C 4.144531 -7.019531 3.609375 -5.835938 3.171875 -4.640625 C 2.734375 -3.453125 2.515625 -2.535156 2.515625 -1.890625 C 2.515625 -0.765625 2.972656 -0.203125 3.890625 -0.203125 C 4.835938 -0.203125 5.84375 -0.910156 6.90625 -2.328125 Z M 6.90625 -2.328125 "/></g></g></g><g fill="#c877a3" fill-opacity="1"><g transform="translate(11.849261, 19.277486)"><g><path d="M 1.578125 0.046875 L 1.375 0 L 1.34375 -0.140625 C 2.09375 -1.472656 3.148438 -3.359375 4.515625 -5.796875 C 5.878906 -8.242188 6.847656 -9.96875 7.421875 -10.96875 C 6.203125 -9.875 4.976562 -8.953125 3.75 -8.203125 L 3.671875 -8.203125 L 3.578125 -8.390625 L 3.625 -8.515625 C 5.613281 -10.035156 6.898438 -11.109375 7.484375 -11.734375 C 8.066406 -12.367188 8.488281 -12.695312 8.75 -12.71875 L 9.4375 -12.796875 C 9.457031 -12.796875 9.472656 -12.796875 9.484375 -12.796875 C 9.503906 -12.796875 9.535156 -12.785156 9.578125 -12.765625 L 9.578125 -12.65625 L 2.75 -0.109375 C 2.664062 -0.0664062 2.273438 -0.015625 1.578125 0.046875 Z M 1.578125 0.046875 "/></g></g></g><g fill="#c877a3" fill-opacity="1"><g transform="translate(20.350936, 19.277486)"><g><path d="M 3.78125 0.046875 C 3.570312 0.222656 3.335938 0.3125 3.078125 0.3125 C 2.828125 0.3125 2.632812 0.234375 2.5 0.078125 C 2.363281 -0.078125 2.296875 -0.21875 2.296875 -0.34375 C 2.296875 -0.738281 2.414062 -1.035156 2.65625 -1.234375 C 2.894531 -1.429688 3.140625 -1.53125 3.390625 -1.53125 C 3.648438 -1.53125 3.847656 -1.453125 3.984375 -1.296875 C 4.117188 -1.140625 4.1875 -1 4.1875 -0.875 C 4.1875 -0.757812 4.171875 -0.617188 4.140625 -0.453125 C 4.109375 -0.296875 3.988281 -0.128906 3.78125 0.046875 Z M 3.78125 0.046875 "/></g></g></g><g fill="#c877a3" fill-opacity="1"><g transform="translate(25.029106, 19.277486)"><g><path d="M 11.359375 -10.515625 C 11.359375 -9.617188 11.140625 -8.5625 10.703125 -7.34375 C 10.265625 -6.125 9.703125 -4.945312 9.015625 -3.8125 C 8.335938 -2.675781 7.507812 -1.710938 6.53125 -0.921875 C 5.550781 -0.140625 4.617188 0.25 3.734375 0.25 C 2.859375 0.25 2.210938 -0.03125 1.796875 -0.59375 C 1.378906 -1.15625 1.171875 -1.847656 1.171875 -2.671875 C 1.171875 -3.828125 1.570312 -5.210938 2.375 -6.828125 C 3.1875 -8.453125 4.238281 -9.890625 5.53125 -11.140625 C 6.832031 -12.390625 8.078125 -13.015625 9.265625 -13.015625 C 10.660156 -13.015625 11.359375 -12.179688 11.359375 -10.515625 Z M 6.90625 -2.328125 C 7.976562 -3.753906 8.84375 -5.3125 9.5 -7 C 10.164062 -8.6875 10.5 -10.039062 10.5 -11.0625 C 10.5 -12.082031 10.09375 -12.59375 9.28125 -12.59375 C 8.59375 -12.59375 7.832031 -12.148438 7 -11.265625 C 6.164062 -10.390625 5.425781 -9.363281 4.78125 -8.1875 C 4.144531 -7.019531 3.609375 -5.835938 3.171875 -4.640625 C 2.734375 -3.453125 2.515625 -2.535156 2.515625 -1.890625 C 2.515625 -0.765625 2.972656 -0.203125 3.890625 -0.203125 C 4.835938 -0.203125 5.84375 -0.910156 6.90625 -2.328125 Z M 6.90625 -2.328125 "/></g></g></g><g fill="#c877a3" fill-opacity="1"><g transform="translate(36.319688, 19.277486)"><g><path d="M 8.296875 -12.96875 C 8.898438 -12.96875 9.394531 -12.820312 9.78125 -12.53125 C 10.164062 -12.238281 10.359375 -11.84375 10.359375 -11.34375 C 10.359375 -10.84375 10.253906 -10.359375 10.046875 -9.890625 C 9.835938 -9.429688 9.53125 -8.96875 9.125 -8.5 C 8.476562 -7.78125 7.757812 -7.078125 6.96875 -6.390625 C 7.25 -5.753906 7.390625 -4.898438 7.390625 -3.828125 C 7.390625 -2.753906 6.914062 -1.804688 5.96875 -0.984375 C 5.019531 -0.160156 3.988281 0.25 2.875 0.25 C 2.175781 0.25 1.570312 0.0546875 1.0625 -0.328125 C 0.5625 -0.710938 0.3125 -1.195312 0.3125 -1.78125 C 0.3125 -2.375 0.460938 -2.941406 0.765625 -3.484375 C 1.066406 -4.035156 1.5 -4.582031 2.0625 -5.125 C 3.039062 -6.039062 3.988281 -6.835938 4.90625 -7.515625 C 4.644531 -8.097656 4.515625 -8.695312 4.515625 -9.3125 C 4.515625 -10.28125 4.898438 -11.128906 5.671875 -11.859375 C 6.441406 -12.597656 7.316406 -12.96875 8.296875 -12.96875 Z M 9.5625 -11.265625 C 9.5625 -11.648438 9.453125 -11.957031 9.234375 -12.1875 C 9.015625 -12.414062 8.707031 -12.53125 8.3125 -12.53125 C 7.6875 -12.53125 7.140625 -12.273438 6.671875 -11.765625 C 6.210938 -11.253906 5.984375 -10.675781 5.984375 -10.03125 C 5.984375 -9.394531 6.257812 -8.335938 6.8125 -6.859375 C 7.53125 -7.453125 8.164062 -8.144531 8.71875 -8.9375 C 9.28125 -9.738281 9.5625 -10.515625 9.5625 -11.265625 Z M 5.046875 -1.234375 C 5.648438 -1.921875 5.953125 -2.6875 5.953125 -3.53125 C 5.953125 -4.375 5.640625 -5.554688 5.015625 -7.078125 C 2.566406 -5.265625 1.34375 -3.523438 1.34375 -1.859375 C 1.34375 -1.359375 1.476562 -0.957031 1.75 -0.65625 C 2.019531 -0.363281 2.410156 -0.21875 2.921875 -0.21875 C 3.742188 -0.21875 4.453125 -0.554688 5.046875 -1.234375 Z M 5.046875 -1.234375 "/></g></g></g><g fill="#c877a3" fill-opacity="1"><g transform="translate(45.765994, 19.277486)"><g><path d="M 3.78125 0.046875 C 3.570312 0.222656 3.335938 0.3125 3.078125 0.3125 C 2.828125 0.3125 2.632812 0.234375 2.5 0.078125 C 2.363281 -0.078125 2.296875 -0.21875 2.296875 -0.34375 C 2.296875 -0.738281 2.414062 -1.035156 2.65625 -1.234375 C 2.894531 -1.429688 3.140625 -1.53125 3.390625 -1.53125 C 3.648438 -1.53125 3.847656 -1.453125 3.984375 -1.296875 C 4.117188 -1.140625 4.1875 -1 4.1875 -0.875 C 4.1875 -0.757812 4.171875 -0.617188 4.140625 -0.453125 C 4.109375 -0.296875 3.988281 -0.128906 3.78125 0.046875 Z M 3.78125 0.046875 "/></g></g></g><g fill="#c877a3" fill-opacity="1"><g transform="translate(50.444164, 19.277486)"><g><path d="M 9.90625 -8.453125 C 8.976562 -7.367188 8.109375 -6.46875 7.296875 -5.75 C 6.484375 -5.03125 5.898438 -4.523438 5.546875 -4.234375 C 5.203125 -3.941406 4.726562 -3.546875 4.125 -3.046875 C 3.519531 -2.554688 3.203125 -2.296875 3.171875 -2.265625 C 4.878906 -1.410156 5.910156 -0.984375 6.265625 -0.984375 C 6.628906 -0.984375 7 -1.109375 7.375 -1.359375 C 7.75 -1.617188 8.0625 -1.890625 8.3125 -2.171875 C 8.570312 -2.460938 8.734375 -2.613281 8.796875 -2.625 L 8.953125 -2.5 L 8.953125 -2.40625 C 7.484375 -0.625 6.296875 0.265625 5.390625 0.265625 C 5.078125 0.265625 4.625 0.140625 4.03125 -0.109375 C 3.4375 -0.367188 2.941406 -0.585938 2.546875 -0.765625 C 2.148438 -0.941406 1.929688 -1.039062 1.890625 -1.0625 L 0.3125 0.1875 L 0.015625 0 C 0.0351562 -0.0703125 0.390625 -0.488281 1.078125 -1.25 C 1.765625 -2.007812 2.144531 -2.398438 2.21875 -2.421875 C 2.445312 -2.453125 2.613281 -2.445312 2.71875 -2.40625 C 7.394531 -6.570312 9.734375 -9.523438 9.734375 -11.265625 C 9.734375 -11.921875 9.359375 -12.25 8.609375 -12.25 C 7.859375 -12.25 7.140625 -11.882812 6.453125 -11.15625 C 5.773438 -10.4375 5.273438 -9.640625 4.953125 -8.765625 L 4.859375 -8.671875 L 4.59375 -8.671875 L 4.546875 -8.8125 C 4.929688 -9.90625 5.550781 -10.867188 6.40625 -11.703125 C 7.257812 -12.535156 8.210938 -12.953125 9.265625 -12.953125 C 9.859375 -12.953125 10.347656 -12.785156 10.734375 -12.453125 C 11.117188 -12.128906 11.3125 -11.648438 11.3125 -11.015625 C 11.3125 -10.390625 10.84375 -9.535156 9.90625 -8.453125 Z M 9.90625 -8.453125 "/></g></g></g><g fill="#c877a3" fill-opacity="1"><g transform="translate(61.419873, 19.277486)"><g><path d="M 11.359375 -10.515625 C 11.359375 -9.617188 11.140625 -8.5625 10.703125 -7.34375 C 10.265625 -6.125 9.703125 -4.945312 9.015625 -3.8125 C 8.335938 -2.675781 7.507812 -1.710938 6.53125 -0.921875 C 5.550781 -0.140625 4.617188 0.25 3.734375 0.25 C 2.859375 0.25 2.210938 -0.03125 1.796875 -0.59375 C 1.378906 -1.15625 1.171875 -1.847656 1.171875 -2.671875 C 1.171875 -3.828125 1.570312 -5.210938 2.375 -6.828125 C 3.1875 -8.453125 4.238281 -9.890625 5.53125 -11.140625 C 6.832031 -12.390625 8.078125 -13.015625 9.265625 -13.015625 C 10.660156 -13.015625 11.359375 -12.179688 11.359375 -10.515625 Z M 6.90625 -2.328125 C 7.976562 -3.753906 8.84375 -5.3125 9.5 -7 C 10.164062 -8.6875 10.5 -10.039062 10.5 -11.0625 C 10.5 -12.082031 10.09375 -12.59375 9.28125 -12.59375 C 8.59375 -12.59375 7.832031 -12.148438 7 -11.265625 C 6.164062 -10.390625 5.425781 -9.363281 4.78125 -8.1875 C 4.144531 -7.019531 3.609375 -5.835938 3.171875 -4.640625 C 2.734375 -3.453125 2.515625 -2.535156 2.515625 -1.890625 C 2.515625 -0.765625 2.972656 -0.203125 3.890625 -0.203125 C 4.835938 -0.203125 5.84375 -0.910156 6.90625 -2.328125 Z M 6.90625 -2.328125 "/></g></g></g><g fill="#c877a3" fill-opacity="1"><g transform="translate(72.710455, 19.277486)"><g><path d="M 9.90625 -8.453125 C 8.976562 -7.367188 8.109375 -6.46875 7.296875 -5.75 C 6.484375 -5.03125 5.898438 -4.523438 5.546875 -4.234375 C 5.203125 -3.941406 4.726562 -3.546875 4.125 -3.046875 C 3.519531 -2.554688 3.203125 -2.296875 3.171875 -2.265625 C 4.878906 -1.410156 5.910156 -0.984375 6.265625 -0.984375 C 6.628906 -0.984375 7 -1.109375 7.375 -1.359375 C 7.75 -1.617188 8.0625 -1.890625 8.3125 -2.171875 C 8.570312 -2.460938 8.734375 -2.613281 8.796875 -2.625 L 8.953125 -2.5 L 8.953125 -2.40625 C 7.484375 -0.625 6.296875 0.265625 5.390625 0.265625 C 5.078125 0.265625 4.625 0.140625 4.03125 -0.109375 C 3.4375 -0.367188 2.941406 -0.585938 2.546875 -0.765625 C 2.148438 -0.941406 1.929688 -1.039062 1.890625 -1.0625 L 0.3125 0.1875 L 0.015625 0 C 0.0351562 -0.0703125 0.390625 -0.488281 1.078125 -1.25 C 1.765625 -2.007812 2.144531 -2.398438 2.21875 -2.421875 C 2.445312 -2.453125 2.613281 -2.445312 2.71875 -2.40625 C 7.394531 -6.570312 9.734375 -9.523438 9.734375 -11.265625 C 9.734375 -11.921875 9.359375 -12.25 8.609375 -12.25 C 7.859375 -12.25 7.140625 -11.882812 6.453125 -11.15625 C 5.773438 -10.4375 5.273438 -9.640625 4.953125 -8.765625 L 4.859375 -8.671875 L 4.59375 -8.671875 L 4.546875 -8.8125 C 4.929688 -9.90625 5.550781 -10.867188 6.40625 -11.703125 C 7.257812 -12.535156 8.210938 -12.953125 9.265625 -12.953125 C 9.859375 -12.953125 10.347656 -12.785156 10.734375 -12.453125 C 11.117188 -12.128906 11.3125 -11.648438 11.3125 -11.015625 C 11.3125 -10.390625 10.84375 -9.535156 9.90625 -8.453125 Z M 9.90625 -8.453125 "/></g></g></g><g fill="#c877a3" fill-opacity="1"><g transform="translate(83.686164, 19.277486)"><g><path d="M 2.15625 -1.65625 C 2.15625 -1.257812 2.265625 -0.925781 2.484375 -0.65625 C 2.703125 -0.394531 3.003906 -0.265625 3.390625 -0.265625 C 4.054688 -0.265625 4.726562 -0.609375 5.40625 -1.296875 C 6.09375 -1.992188 6.632812 -2.785156 7.03125 -3.671875 C 7.425781 -4.566406 7.625 -5.320312 7.625 -5.9375 C 7.625 -6.5625 7.367188 -6.875 6.859375 -6.875 C 6.390625 -6.875 5.914062 -6.648438 5.4375 -6.203125 C 4.707031 -5.515625 4.09375 -4.550781 3.59375 -3.3125 L 3.5 -3.1875 L 3.28125 -3.171875 L 3.234375 -3.3125 C 3.472656 -4.3125 3.992188 -5.269531 4.796875 -6.1875 C 5.597656 -7.113281 6.460938 -7.578125 7.390625 -7.578125 C 7.898438 -7.578125 8.296875 -7.410156 8.578125 -7.078125 C 8.859375 -6.753906 9 -6.328125 9 -5.796875 C 9 -4.972656 8.703125 -4.082031 8.109375 -3.125 C 7.523438 -2.175781 6.78125 -1.375 5.875 -0.71875 C 4.96875 -0.0703125 4.117188 0.25 3.328125 0.25 C 2.535156 0.25 1.921875 0.0351562 1.484375 -0.390625 C 1.046875 -0.816406 0.828125 -1.457031 0.828125 -2.3125 C 0.828125 -3.164062 1.117188 -4.148438 1.703125 -5.265625 C 2.285156 -6.390625 3.050781 -7.453125 4 -8.453125 C 5.738281 -10.296875 7.550781 -11.878906 9.4375 -13.203125 L 9.578125 -13.21875 L 9.734375 -12.96875 C 9.722656 -12.957031 9.703125 -12.925781 9.671875 -12.875 C 9.648438 -12.832031 9.597656 -12.765625 9.515625 -12.671875 C 9.441406 -12.585938 9.210938 -12.390625 8.828125 -12.078125 C 8.441406 -11.773438 8.195312 -11.578125 8.09375 -11.484375 C 7.039062 -10.515625 6.097656 -9.484375 5.265625 -8.390625 C 4.441406 -7.296875 3.71875 -6.132812 3.09375 -4.90625 C 2.46875 -3.6875 2.15625 -2.601562 2.15625 -1.65625 Z M 2.15625 -1.65625 "/></g></g></g></g></g></svg>